<svg width="150" height="150" viewBox="0 0 150 150" fill="none" xmlns="http://www.w3.org/2000/svg">
<path d="M150 108.546C150 100.3 116.414 105.558 74.9996 105.558C33.5835 105.558 0.000488281 100.3 0.000488281 108.546C0.000488281 114.006 14.7836 121.386 36.7579 125.759C26.1483 128.954 18.7537 133.355 18.7537 138.32C18.7537 139.972 20.0806 141.388 21.7231 141.388C23.383 141.388 24.7099 140.132 24.7099 138.486C25.5757 135.939 36.4543 130.912 52.8696 128.237C59.8636 129.005 67.2945 129.445 74.9944 129.445C82.709 129.445 90.1399 129.005 97.1426 128.237C113.548 130.902 124.41 135.892 125.267 138.319C125.267 139.972 126.606 141.311 128.243 141.311C129.905 141.311 131.236 139.972 131.236 138.319C131.236 133.355 123.837 128.943 113.235 125.758C135.225 121.386 150 114.007 150 108.546Z" fill="#4F3921"/>
<path d="M75.0074 99.5997C88.0822 99.5997 98.6754 97.2945 98.6754 94.4601V42.2613C98.6754 39.8282 90.8457 37.8024 80.3676 37.2627C87.9689 27.8701 80.717 15.5729 72.422 8.61084C73.9764 16.1957 61.3782 26.8615 69.521 37.2835C59.1215 37.8163 51.3412 39.8368 51.3412 42.2605V94.4592C51.3421 97.2945 61.9474 99.5997 75.0074 99.5997ZM70.3738 38.2886C71.1687 39.1639 72.0761 40.0418 73.2057 40.9154C72.0518 39.8671 71.3201 38.8361 70.8495 37.8171L70.5814 37.2108C68.7875 32.1067 74.1053 27.1721 75.1337 21.1087C78.7769 26.9991 81.8346 32.6836 79.4403 37.5629L79.2898 37.8682C78.9231 38.51 78.5027 39.1492 77.9405 39.7642C78.5226 39.2884 79.0148 38.7747 79.5009 38.2661C91.2203 38.7513 97.6426 41.014 97.6426 42.2518C97.6426 43.4818 89.9375 46.3604 75.0117 46.3604C60.0747 46.3604 52.3835 43.4827 52.3835 42.2518C52.3835 41.0262 58.7522 38.785 70.3738 38.2886Z" fill="#4F3921"/>
<path d="M75.017 43.2985C75.5853 43.2985 76.0489 42.8323 76.0489 42.2571V33.3869C76.0489 32.8143 75.5853 32.355 75.017 32.355C74.4461 32.355 73.9773 32.8143 73.9773 33.3869V42.2562C73.9816 42.8357 74.4461 43.2985 75.017 43.2985Z" fill="#4F3921"/>
</svg>
