<svg width="33" height="33" viewBox="0 0 33 33" fill="none" xmlns="http://www.w3.org/2000/svg">
<g clip-path="url(#clip0_6_684)">
<path d="M16.2889 0C7.2926 0 -0.000488281 7.29309 -0.000488281 16.2894C-0.000488281 23.9285 5.25903 30.3387 12.354 32.0992V21.2674H8.99517V16.2894H12.354V14.1444C12.354 8.60015 14.8633 6.03033 20.3065 6.03033C21.3386 6.03033 23.1194 6.23297 23.8478 6.43496V10.9471C23.4634 10.9067 22.7955 10.8865 21.9661 10.8865C19.2953 10.8865 18.2632 11.8984 18.2632 14.5288V16.2894H23.5839L22.6698 21.2674H18.2632V32.4596C26.329 31.4854 32.579 24.6178 32.579 16.2894C32.5783 7.29309 25.2852 0 16.2889 0Z" fill="#7D674E"/>
</g>
<defs>
<clipPath id="clip0_6_684">
<rect width="32.5788" height="32.4596" fill="white"/>
</clipPath>
</defs>
</svg>
