<svg width="49" height="48" viewBox="0 0 49 48" fill="none" xmlns="http://www.w3.org/2000/svg">
<g clip-path="url(#clip0_11_281)">
<path d="M24.0877 0C10.7843 0 -0.000488281 10.7848 -0.000488281 24.0882C-0.000488281 35.3845 7.7771 44.8637 18.2689 47.4672V31.4495H13.302V24.0882H18.2689V20.9162C18.2689 12.7176 21.9795 8.91744 30.0288 8.91744C31.555 8.91744 34.1883 9.21709 35.2655 9.51579V16.1882C34.6971 16.1285 33.7094 16.0986 32.4829 16.0986C28.5334 16.0986 27.0072 17.595 27.0072 21.4847V24.0882H34.8753L33.5235 31.4495H27.0072V48C38.9347 46.5595 48.1768 36.404 48.1768 24.0882C48.1758 10.7848 37.3911 0 24.0877 0Z" fill="white"/>
</g>
<defs>
<clipPath id="clip0_11_281">
<rect width="48.1763" height="48" fill="white"/>
</clipPath>
</defs>
</svg>
