<svg width="150" height="150" viewBox="0 0 150 150" fill="none" xmlns="http://www.w3.org/2000/svg">
<g clip-path="url(#clip0_34_6855)">
<path d="M90.0483 28.01C94.4904 32.545 98.2418 37.5199 101.206 42.7335C108.093 38.7225 116.21 36.0208 125.255 35.3862C113.056 44.6925 122.424 83.8769 104.465 95.6414L104.139 96.1623C143.101 96.8481 133.828 34.0129 150.001 19.9897C125.563 9.05681 103.963 15.0717 90.0483 28.01Z" fill="#4F3921"/>
<path d="M61.1287 59.3335C74.853 73.5578 80.5891 137.426 80.5891 137.426L91.7495 125.947C91.7487 125.941 83.5793 70.3088 61.1287 59.3335Z" fill="#4F3921"/>
<path d="M111.891 45.5444C107.486 47.6949 104.01 52.568 101.296 58.0757C91.4978 25.9783 52.2205 -2.62422 0 21.6572C33.7128 27.084 10.7998 108.438 66.4088 109.674C47.3538 100.454 58.0479 68.4693 44.406 47.6028C82.0208 41.6432 97.9189 81.2114 92.6436 101.86C101.395 92.8237 104.668 80.8044 103.432 68.519C105.35 59.1983 108.135 49.4304 111.891 45.5444Z" fill="#4F3921"/>
</g>
<defs>
<clipPath id="clip0_34_6855">
<rect width="150" height="150" fill="white"/>
</clipPath>
</defs>
</svg>
