<svg width="48" height="48" viewBox="0 0 48 48" fill="none" xmlns="http://www.w3.org/2000/svg">
<g clip-path="url(#clip0_11_282)">
<path d="M24.0047 4.32272C30.4184 4.32272 31.178 4.35085 33.7003 4.46337C36.0445 4.56652 37.3104 4.96034 38.1543 5.28853C39.2702 5.71987 40.0766 6.24497 40.9111 7.07951C41.755 7.92342 42.2708 8.72045 42.7021 9.8363C43.0303 10.6802 43.4241 11.9555 43.5273 14.2903C43.6398 16.822 43.6679 17.5816 43.6679 23.9859C43.6679 30.3997 43.6398 31.1592 43.5273 33.6816C43.4241 36.0258 43.0303 37.2917 42.7021 38.1356C42.2708 39.2514 41.7457 40.0578 40.9111 40.8924C40.0672 41.7363 39.2702 42.252 38.1543 42.6833C37.3104 43.0115 36.0352 43.4054 33.7003 43.5085C31.1686 43.621 30.4091 43.6492 24.0047 43.6492C17.5909 43.6492 16.8314 43.621 14.309 43.5085C11.9648 43.4054 10.699 43.0115 9.85505 42.6833C8.73921 42.252 7.9328 41.7269 7.09826 40.8924C6.25435 40.0485 5.73862 39.2514 5.30729 38.1356C4.9791 37.2917 4.58527 36.0164 4.48213 33.6816C4.3696 31.1498 4.34147 30.3903 4.34147 23.9859C4.34147 17.5722 4.3696 16.8127 4.48213 14.2903C4.58527 11.9461 4.9791 10.6802 5.30729 9.8363C5.73862 8.72045 6.26372 7.91405 7.09826 7.07951C7.94218 6.23559 8.73921 5.71987 9.85505 5.28853C10.699 4.96034 11.9742 4.56652 14.309 4.46337C16.8314 4.35085 17.5909 4.32272 24.0047 4.32272ZM24.0047 0C17.4878 0 16.672 0.0281305 14.1121 0.140652C11.5616 0.253174 9.80817 0.665755 8.28912 1.2565C6.70443 1.87537 5.36355 2.69115 4.03204 4.03204C2.69115 5.36355 1.87537 6.70444 1.2565 8.27974C0.665755 9.80817 0.253174 11.5523 0.140652 14.1028C0.0281305 16.672 0 17.4878 0 24.0047C0 30.5216 0.0281305 31.3374 0.140652 33.8972C0.253174 36.4477 0.665755 38.2012 1.2565 39.7203C1.87537 41.3049 2.69115 42.6458 4.03204 43.9773C5.36355 45.3088 6.70444 46.134 8.27974 46.7435C9.80817 47.3342 11.5523 47.7468 14.1028 47.8593C16.6626 47.9719 17.4784 48 23.9953 48C30.5122 48 31.328 47.9719 33.8879 47.8593C36.4384 47.7468 38.1918 47.3342 39.7109 46.7435C41.2862 46.134 42.6271 45.3088 43.9586 43.9773C45.2901 42.6458 46.1153 41.3049 46.7248 39.7296C47.3155 38.2012 47.7281 36.4571 47.8406 33.9066C47.9531 31.3468 47.9813 30.531 47.9813 24.0141C47.9813 17.4972 47.9531 16.6814 47.8406 14.1215C47.7281 11.571 47.3155 9.81754 46.7248 8.2985C46.134 6.70443 45.3182 5.36355 43.9773 4.03204C42.6458 2.70053 41.3049 1.87537 39.7296 1.26587C38.2012 0.675132 36.4571 0.262551 33.9066 0.150029C31.3374 0.0281305 30.5216 0 24.0047 0Z" fill="white"/>
<path d="M23.991 11.6719C17.1874 11.6719 11.6677 17.1938 11.6677 24C11.6677 30.8062 17.1874 36.3281 23.991 36.3281C30.7946 36.3281 36.3143 30.8062 36.3143 24C36.3143 17.1938 30.7946 11.6719 23.991 11.6719ZM23.991 31.9969C19.5771 31.9969 15.9972 28.4156 15.9972 24C15.9972 19.5844 19.5771 16.0031 23.991 16.0031C28.4049 16.0031 31.9847 19.5844 31.9847 24C31.9847 28.4156 28.4049 31.9969 23.991 31.9969Z" fill="white"/>
<path d="M39.6782 11.1848C39.6782 12.7785 38.385 14.0629 36.8012 14.0629C35.2081 14.0629 33.9242 12.7691 33.9242 11.1848C33.9242 9.59102 35.2174 8.30664 36.8012 8.30664C38.385 8.30664 39.6782 9.60039 39.6782 11.1848Z" fill="white"/>
</g>
<defs>
<clipPath id="clip0_11_282">
<rect width="47.9813" height="48" fill="white"/>
</clipPath>
</defs>
</svg>
