<svg width="33" height="33" viewBox="0 0 33 33" fill="none" xmlns="http://www.w3.org/2000/svg">
<g clip-path="url(#clip0_6_686)">
<path d="M16.2329 2.9232C20.5702 2.9232 21.0838 2.94222 22.7895 3.01831C24.3748 3.08806 25.2308 3.35439 25.8015 3.57632C26.5561 3.86801 27.1014 4.2231 27.6658 4.78745C28.2365 5.35814 28.5852 5.89713 28.8769 6.6517C29.0988 7.22239 29.3651 8.08477 29.4349 9.66368C29.511 11.3757 29.53 11.8894 29.53 16.2203C29.53 20.5575 29.511 21.0711 29.4349 22.7769C29.3651 24.3621 29.0988 25.2181 28.8769 25.7888C28.5852 26.5434 28.2301 27.0887 27.6658 27.6531C27.0951 28.2238 26.5561 28.5725 25.8015 28.8642C25.2308 29.0861 24.3684 29.3525 22.7895 29.4222C21.0775 29.4983 20.5638 29.5173 16.2329 29.5173C11.8957 29.5173 11.3821 29.4983 9.67636 29.4222C8.09111 29.3525 7.23508 29.0861 6.66439 28.8642C5.90981 28.5725 5.36448 28.2174 4.80013 27.6531C4.22944 27.0824 3.88069 26.5434 3.589 25.7888C3.36707 25.2181 3.10075 24.3558 3.031 22.7769C2.9549 21.0648 2.93588 20.5512 2.93588 16.2203C2.93588 11.883 2.9549 11.3694 3.031 9.66368C3.10075 8.07843 3.36707 7.22239 3.589 6.6517C3.88069 5.89713 4.23578 5.3518 4.80013 4.78745C5.37082 4.21676 5.90981 3.86801 6.66439 3.57632C7.23508 3.35439 8.09745 3.08806 9.67636 3.01831C11.3821 2.94222 11.8957 2.9232 16.2329 2.9232ZM16.2329 0C11.826 0 11.2743 0.019023 9.5432 0.0951149C7.81845 0.171207 6.63268 0.450211 5.60544 0.849693C4.53381 1.2682 3.62705 1.81987 2.72663 2.72663C1.81987 3.62705 1.2682 4.53381 0.849693 5.5991C0.450211 6.63268 0.171207 7.81211 0.0951149 9.53686C0.019023 11.2743 0 11.826 0 16.2329C0 20.6399 0.019023 21.1916 0.0951149 22.9227C0.171207 24.6474 0.450211 25.8332 0.849693 26.8605C1.2682 27.9321 1.81987 28.8388 2.72663 29.7393C3.62705 30.6397 4.53381 31.1977 5.5991 31.6099C6.63268 32.0093 7.81211 32.2883 9.53686 32.3644C11.2679 32.4405 11.8196 32.4596 16.2266 32.4596C20.6336 32.4596 21.1853 32.4405 22.9164 32.3644C24.6411 32.2883 25.8269 32.0093 26.8541 31.6099C27.9194 31.1977 28.8262 30.6397 29.7266 29.7393C30.627 28.8388 31.185 27.9321 31.5972 26.8668C31.9967 25.8332 32.2757 24.6538 32.3518 22.929C32.4278 21.1979 32.4469 20.6463 32.4469 16.2393C32.4469 11.8323 32.4278 11.2806 32.3518 9.54954C32.2757 7.82479 31.9967 6.63902 31.5972 5.61178C31.1977 4.53381 30.646 3.62705 29.7393 2.72663C28.8388 1.82621 27.9321 1.2682 26.8668 0.856034C25.8332 0.456552 24.6538 0.177548 22.929 0.101456C21.1916 0.019023 20.6399 0 16.2329 0Z" fill="#7D674E"/>
<path d="M16.2235 7.89258C11.6227 7.89258 7.89001 11.6267 7.89001 16.2294C7.89001 20.832 11.6227 24.5661 16.2235 24.5661C20.8244 24.5661 24.5571 20.832 24.5571 16.2294C24.5571 11.6267 20.8244 7.89258 16.2235 7.89258ZM16.2235 21.6372C13.2387 21.6372 10.8178 19.2154 10.8178 16.2294C10.8178 13.2433 13.2387 10.8215 16.2235 10.8215C19.2084 10.8215 21.6292 13.2433 21.6292 16.2294C21.6292 19.2154 19.2084 21.6372 16.2235 21.6372Z" fill="#7D674E"/>
<path d="M26.8321 7.5635C26.8321 8.64126 25.9576 9.5098 24.8866 9.5098C23.8092 9.5098 22.941 8.63492 22.941 7.5635C22.941 6.48574 23.8156 5.61719 24.8866 5.61719C25.9576 5.61719 26.8321 6.49208 26.8321 7.5635Z" fill="#7D674E"/>
</g>
<defs>
<clipPath id="clip0_6_686">
<rect width="32.4469" height="32.4596" fill="white"/>
</clipPath>
</defs>
</svg>
