<svg width="24" height="24" viewBox="0 0 24 24" fill="none" xmlns="http://www.w3.org/2000/svg">
<path d="M11.7678 0.078125C11.9072 -0.0263283 12.0973 -0.026364 12.2366 0.078125C12.6511 0.391956 16.2619 3.17885 16.262 5.2998C16.262 6.46486 15.7232 7.55281 14.802 8.30371C15.1426 8.563 15.445 8.8645 15.7004 9.20117C16.4508 8.28075 17.5374 7.743 18.7014 7.74219C20.8224 7.74358 23.6125 11.3574 23.9221 11.7676C24.0265 11.9069 24.0266 12.097 23.9221 12.2363C23.6086 12.6505 20.8215 16.2614 18.7004 16.2617C17.5354 16.2617 16.4474 15.723 15.6965 14.8018C15.4373 15.1423 15.1357 15.4448 14.7991 15.7002C15.7201 16.4511 16.2581 17.5392 16.2581 18.7041C16.2577 20.8245 12.6449 23.6136 12.2327 23.9248C12.163 23.9751 12.0815 24.0029 12.0002 24.0029C11.919 24.0029 11.8375 23.9751 11.7678 23.9248C11.3523 23.6103 7.74276 20.8247 7.74243 18.7041C7.74243 17.5391 8.2803 16.4511 9.20142 15.7002C8.86087 15.4409 8.55937 15.1384 8.30396 14.8018C7.55305 15.723 6.46511 16.2617 5.30005 16.2617C3.1791 16.2617 0.388332 12.647 0.0783691 12.2363C-0.02612 12.097 -0.0260848 11.9069 0.0783691 11.7676C0.391887 11.3534 3.17895 7.74224 5.30005 7.74219C6.46509 7.74219 7.55306 8.27998 8.30396 9.20117C8.56316 8.86077 8.86489 8.55905 9.20142 8.30371C8.28023 7.55281 7.74243 6.46485 7.74243 5.2998C7.74248 3.17871 11.3575 0.387773 11.7678 0.078125Z" fill="#7A6A55"/>
</svg>
