<svg width="150" height="150" viewBox="0 0 150 150" fill="none" xmlns="http://www.w3.org/2000/svg">
<g clip-path="url(#clip0_35_6861)">
<path d="M102.736 47.8539C89.7086 47.8539 77.4194 46.1313 68.1144 43.0091C61.9468 40.9327 57.9941 38.5641 55.5024 36.1956V77.646C56.1484 76.5079 56.9482 75.5388 57.9172 74.7237C60.6549 72.4473 63.9617 72.1397 66.8532 72.1397C67.7299 72.1397 68.6066 72.1704 69.4525 72.2012C70.2984 72.232 71.1751 72.2627 72.021 72.2627C73.1284 72.2627 74.0359 72.2164 74.8509 72.0934C75.0971 72.0626 75.3431 72.0472 75.5892 72.0472C77.8038 72.0472 79.788 73.3853 80.6184 75.4309C81.2644 77.0305 82.218 78.553 83.2177 80.168C84.7711 82.6751 86.3861 85.2744 86.8014 88.3042C87.3243 92.1187 85.7862 95.5793 82.2641 98.6091C82.1872 98.6706 82.1103 98.7323 82.0334 98.8092C81.9873 98.8552 81.9411 98.8861 81.8796 98.9321C81.9257 98.9321 81.972 98.9167 82.018 98.9167C82.8484 98.7938 83.6637 98.7475 84.4174 98.7475C88.2317 98.7475 91.2463 100.209 93.338 103.069C94.9376 105.254 95.722 107.884 96.491 110.406C97.0449 112.236 97.5523 113.959 98.3213 115.497C99.4287 117.712 98.8904 120.403 97.014 122.018C96.9524 122.08 96.8909 122.141 96.814 122.188C98.752 122.264 100.736 122.31 102.751 122.31C128.836 122.31 149.984 115.22 149.984 106.469V95.3792C141.156 106.238 118.946 107.791 109.165 107.945C106.55 107.976 104.412 105.869 104.412 103.254V66.2336C104.412 63.7419 106.35 61.6808 108.842 61.5425C118.793 60.9887 142.633 58.7894 150 50.4532V36.1802C147.524 38.5488 143.556 40.9174 137.388 42.9937C128.052 46.1313 115.748 47.8539 102.736 47.8539Z" fill="#4F3921"/>
<path d="M102.736 0.466309C79.2191 0.466309 59.7167 6.23398 56.1023 13.7858C56.5945 17.3694 61.347 21.153 69.0373 24.0445C75.4201 26.4439 83.2642 28.0742 91.7694 28.8279C95.3224 29.1355 98.9828 29.3047 102.72 29.3047C106.458 29.3047 110.118 29.1355 113.671 28.8279C122.192 28.0742 130.021 26.4439 136.403 24.0445C144.094 21.153 148.862 17.3694 149.339 13.7858C145.755 6.23398 126.253 0.466309 102.736 0.466309Z" fill="#4F3921"/>
<path d="M137.772 27.6592C136.665 28.0745 135.512 28.4744 134.312 28.8435C125.376 31.6428 114.317 33.1654 102.736 33.1654C91.1542 33.1654 80.0958 31.6428 71.1597 28.8435C69.9756 28.4744 68.8065 28.0745 67.6991 27.6592C62.2391 25.6136 58.1171 23.1374 55.5024 20.415V28.1668C55.5024 28.3975 55.518 28.6282 55.5486 28.8435C56.6098 37.2874 77.3273 44.0086 102.736 44.0086C128.144 44.0086 148.862 37.272 149.923 28.8435C149.954 28.6128 149.969 28.3975 149.969 28.1668V20.415C147.354 23.1374 143.233 25.5983 137.772 27.6592Z" fill="#4F3921"/>
<path d="M23.9419 74.5081C25.7875 75.4617 28.0485 74.7235 29.002 72.8778C29.9556 71.0322 29.2174 68.7712 27.3717 67.8176C25.5261 66.8641 23.2651 67.6023 22.3115 69.448C21.3732 71.2936 22.0962 73.5545 23.9419 74.5081Z" fill="#4F3921"/>
<path d="M7.60769 74.8772C9.2534 74.8003 15.99 74.0005 18.9123 72.2162C19.1892 72.047 19.3737 71.8163 19.4814 71.5087C19.7121 70.832 19.3737 70.0937 18.697 69.8322L10.0532 66.5101C10.0378 66.5101 9.99166 66.4793 10.007 66.4178C10.0224 66.3563 10.0686 66.3715 10.0839 66.3715L19.1123 68.3709C19.7736 68.5248 20.4504 68.1402 20.6657 67.4944C20.7734 67.1713 20.758 66.8329 20.6042 66.5101C19.1584 63.4186 13.9906 59.0044 12.6679 58.0354C8.56127 55.0363 6.14654 57.4664 3.57801 60.0503C2.60904 61.0192 1.60931 62.019 0.455777 62.8341C0.271212 62.9726 0.132788 63.1573 0.0558854 63.3725C-0.0210169 63.6187 -0.0210169 63.8802 0.0712659 64.1109C0.578821 65.4336 0.855669 66.8178 1.13252 68.1559C1.8554 71.7242 2.53214 75.0922 7.60769 74.8772Z" fill="#4F3921"/>
<path d="M22.573 89.8884C22.5884 89.8421 22.6038 89.7961 22.6192 89.7346C22.8653 89.0116 23.4497 87.0121 23.9111 84.6591C24.2803 82.7825 24.6494 80.1833 24.3572 78.4146C24.2803 77.9069 23.9265 77.5071 23.4343 77.3533C22.9422 77.1995 22.4192 77.338 22.0655 77.7225L15.7441 84.459C15.7287 84.4743 15.698 84.5052 15.6672 84.4743C15.6672 84.4743 15.6211 84.4437 15.6211 84.3974C15.6211 84.3821 15.6211 84.3821 15.6365 84.3668L20.8966 76.7689C20.9735 76.6614 21.0196 76.5536 21.0658 76.4307C21.2042 76.0152 21.1273 75.5538 20.8658 75.2002C20.6043 74.8465 20.1891 74.6619 19.743 74.6771C16.3286 74.8465 10.2994 77.9687 8.89982 78.8452C7.45405 79.7375 6.56199 80.7218 6.17748 81.8598C5.5315 83.767 6.40818 85.8281 7.33101 88.012C7.86933 89.2733 8.42302 90.5655 8.74601 91.9497C8.85368 92.4265 9.28433 92.7799 9.7765 92.7799C11.1915 92.8108 12.5757 93.0722 13.9138 93.3339C17.4975 94.0258 20.8658 94.6716 22.573 89.8884Z" fill="#4F3921"/>
<path d="M41.8756 65.818L33.4625 69.6631C33.1241 69.8169 32.878 70.0937 32.755 70.4475C32.5397 71.0782 32.8165 71.7548 33.3856 72.0471C36.4002 73.6466 43.1829 74.0465 44.8287 74.0158C47.7202 73.9696 49.3659 72.893 50.1657 70.5244C50.5196 69.4633 50.6886 68.2329 50.8733 66.9408C51.0579 65.5873 51.2578 64.1878 51.6731 62.8342C51.8269 62.3574 51.6268 61.85 51.2117 61.5884C50.0119 60.8501 48.9508 59.9119 47.9355 58.9891C45.2132 56.5743 42.6602 54.298 38.7382 57.5279C37.4616 58.5738 32.5706 63.2802 31.3248 66.464C31.1402 66.9561 31.2479 67.4944 31.6016 67.8636C31.94 68.2173 32.4629 68.3711 32.9397 68.2327L41.8296 65.6794C41.8758 65.664 41.8911 65.6794 41.8911 65.6949C41.9065 65.7103 41.9219 65.7563 41.9065 65.7718C41.9216 65.7872 41.9062 65.8028 41.8756 65.818Z" fill="#4F3921"/>
<path d="M29.8019 46.4235C28.5868 45.8082 27.3102 45.1776 26.1721 44.3471C25.7722 44.0549 25.2185 44.0703 24.834 44.3779C23.742 45.2699 22.5115 45.9774 21.3272 46.6542C19.2662 47.8231 17.3129 48.9305 16.667 50.853C16.2824 51.9912 16.3901 53.3139 16.9899 54.8981C17.5744 56.4361 20.4659 62.5883 23.0652 64.7877C23.4036 65.0799 23.8496 65.1722 24.2803 65.0492C24.7109 64.9261 25.0493 64.6032 25.1877 64.1879C25.2339 64.0647 25.2492 63.9416 25.2646 63.8187L25.7107 54.5905C25.7107 54.5751 25.7107 54.5751 25.7107 54.5597C25.726 54.5136 25.7876 54.529 25.7876 54.529C25.8337 54.529 25.8337 54.5597 25.8491 54.5905L26.7873 63.788C26.8334 64.2955 27.1718 64.7264 27.6486 64.9108C28.1254 65.0953 28.6483 64.9877 29.0175 64.6339C30.3248 63.4035 31.6167 61.1119 32.4627 59.3892C33.5239 57.2513 34.2776 55.298 34.5237 54.5751C34.539 54.5136 34.5544 54.4674 34.5698 54.4213C36.1231 49.5765 33.047 48.0384 29.8019 46.4235Z" fill="#4F3921"/>
<path d="M40.2912 91.8568C40.322 91.8414 40.3374 91.8261 40.3527 91.8261C40.3835 91.8261 40.3989 91.8415 40.4143 91.8568L50.027 101.208C50.396 101.577 50.8883 101.762 51.3805 101.762C51.8266 101.762 52.2572 101.608 52.6263 101.316C53.0108 101.008 53.2416 100.563 53.3031 100.07C53.8722 95.1483 50.8422 85.7816 49.9348 83.567C48.2123 79.368 45.7207 78.1992 42.8753 78.1992C41.0912 78.1992 39.1532 78.6606 37.1845 79.1374C35.262 79.5988 33.2625 80.0756 31.2169 80.2141C30.8785 80.2294 30.5709 80.3525 30.3095 80.568C30.0326 80.7987 29.8327 81.1369 29.7711 81.4908C29.402 83.5056 28.6791 85.4282 28.0024 87.2891C26.1721 92.2262 24.4495 96.9018 30.8785 100.486C32.9703 101.655 41.9063 105.776 46.8587 105.792C46.8587 105.792 46.8587 105.792 46.8742 105.792C47.3356 105.792 47.7509 105.638 48.0891 105.361C48.8889 104.7 49.0275 103.515 48.3967 102.685L40.2758 92.0109C40.2452 91.9647 40.2143 91.9184 40.2912 91.8568Z" fill="#4F3921"/>
<path d="M61.2088 119.634C60.8396 119.311 60.3935 119.157 59.9476 119.157C59.5015 119.157 59.0709 119.311 58.7016 119.603C58.2865 119.942 58.0402 120.434 58.0095 120.972L57.1791 134.353C57.1791 134.399 57.1636 134.415 57.1483 134.43C57.1331 134.445 57.1022 134.445 57.0714 134.445C57.0561 134.445 57.0407 134.445 57.0253 134.43C57.0098 134.415 56.9792 134.415 56.9792 134.353L55.8101 120.987C55.7487 120.265 55.2873 119.65 54.6258 119.373C54.3797 119.265 54.1338 119.219 53.8723 119.219C53.4109 119.219 52.9495 119.388 52.5803 119.726C48.9198 123.079 45.0901 132.138 44.321 134.415C41.9678 141.398 46.3974 143.689 51.0731 146.119C52.8264 147.027 54.6567 147.98 56.287 149.211C56.5639 149.426 56.9023 149.534 57.2405 149.534C57.5944 149.534 57.9326 149.426 58.2248 149.196C59.8244 147.919 61.6239 146.935 63.3619 145.966C65.023 145.058 66.5918 144.182 67.8528 143.151C70.6368 140.828 71.2521 138.045 69.8217 134.107C69.0065 131.862 64.9307 122.895 61.2088 119.634Z" fill="#4F3921"/>
<path d="M48.5351 115.574C48.166 115.143 47.6276 114.913 47.0893 114.913C46.9201 114.913 46.7511 114.928 46.5818 114.974L33.6314 118.496C33.616 118.496 33.6007 118.496 33.5853 118.496C33.5545 118.496 33.5391 118.481 33.5084 118.45C33.5084 118.45 33.4622 118.373 33.5238 118.327C33.5391 118.311 33.5391 118.311 33.5545 118.311L45.8281 112.913C45.9973 112.836 46.1511 112.744 46.2895 112.621C46.7816 112.221 47.0278 111.59 46.9661 110.944C46.9048 110.298 46.5509 109.76 45.9819 109.452C41.6599 107.084 31.9242 106.346 29.4633 106.346C29.4479 106.346 29.4326 106.346 29.4172 106.346C26.9563 106.346 25.1107 106.899 23.7572 108.007C21.5116 109.868 21.0195 113.082 20.4965 116.497C20.2043 118.45 19.8967 120.48 19.2353 122.434C19.0046 123.11 19.2661 123.864 19.8813 124.264C21.6039 125.371 23.1266 126.755 24.5877 128.094C27.1255 130.416 29.5556 132.646 32.5394 132.646C34.139 132.646 35.8924 132 37.8918 130.401C37.9533 130.354 38.0149 130.308 38.0764 130.247C38.9377 129.539 41.1679 127.524 43.5211 124.971C45.3975 122.941 47.843 120.003 48.8273 117.589C49.1657 116.897 49.0274 116.128 48.5351 115.574Z" fill="#4F3921"/>
<path d="M63.0081 101.362C62.6851 102.039 62.762 102.808 63.2235 103.392C63.5926 103.87 64.1463 104.131 64.7307 104.131C64.8538 104.131 64.9922 104.115 65.1308 104.085C67.6839 103.562 71.0215 101.701 73.3593 100.224C76.2968 98.3784 78.6962 96.5481 79.5575 95.8406C79.6189 95.7791 79.6805 95.7331 79.7421 95.6868C85.3404 90.8883 82.7105 86.6586 79.942 82.1829C78.8961 80.4911 77.8195 78.7529 77.0505 76.861C76.8042 76.2615 76.2199 75.877 75.5893 75.877C75.5124 75.877 75.4509 75.877 75.374 75.8923C74.2514 76.0461 73.1286 76.0921 72.0212 76.0921C71.1138 76.0921 70.2063 76.0615 69.3141 76.0309C68.4837 76 67.653 75.9694 66.8532 75.9694C64.3618 75.9694 62.0853 76.2461 60.3781 77.6612C59.04 78.7685 58.1633 80.4912 57.7019 82.906C57.256 85.2593 56.1485 95.0411 57.6865 99.7476C57.8864 100.363 58.3632 100.824 58.9785 100.993C59.1629 101.04 59.3474 101.07 59.5321 101.07C59.9782 101.07 60.4088 100.916 60.7626 100.624C60.901 100.501 61.0241 100.378 61.1317 100.224L68.6987 89.1504C68.7143 89.1351 68.7143 89.1198 68.7295 89.1198C68.745 89.1045 68.7603 89.1044 68.7756 89.1044C68.8219 89.1044 68.8525 89.1351 68.8525 89.1351C68.9141 89.1814 68.8988 89.212 68.8681 89.2582L63.0081 101.362Z" fill="#4F3921"/>
<path d="M92.7847 111.544C91.4004 106.961 90.0931 102.608 84.4023 102.608C83.8332 102.608 83.2026 102.654 82.5411 102.746C80.1727 103.069 70.5444 105.177 66.5764 108.145C65.9612 108.606 65.6997 109.345 65.8535 110.083C66.0073 110.791 66.5302 111.36 67.2224 111.544L80.1419 115.158C80.2035 115.174 80.2035 115.205 80.2188 115.22C80.2342 115.266 80.2188 115.312 80.1881 115.343C80.1881 115.343 80.1727 115.358 80.1419 115.358C80.1419 115.358 80.1266 115.358 80.1112 115.358L66.8071 113.697C66.7302 113.682 66.6379 113.682 66.561 113.682C66.115 113.682 65.6843 113.836 65.3306 114.128C64.8076 114.559 64.5615 115.22 64.6384 115.866C64.6692 116.112 64.7461 116.373 64.8845 116.604C67.3915 120.88 75.4661 126.525 77.5119 127.755C79.2499 128.786 80.8031 129.293 82.2643 129.293C83.8485 129.293 85.3096 128.693 86.7554 127.494C88.0166 126.448 89.1547 125.063 90.3544 123.602C90.8158 123.049 91.2772 122.48 91.754 121.926C92.6 120.957 93.4766 120.003 94.4764 119.142C95.0301 118.665 95.1839 117.896 94.8609 117.25C93.9382 115.405 93.3537 113.436 92.7847 111.544Z" fill="#4F3921"/>
<path d="M55.5024 104.192C54.7026 104.269 53.903 104.515 53.1646 104.961C50.5807 106.515 49.7655 109.868 51.3189 112.452C52.3494 114.143 54.1489 115.082 55.9794 115.082C56.9483 115.082 57.9173 114.82 58.794 114.297C59.2554 114.02 59.6707 113.667 60.0089 113.282C61.5777 111.544 61.9008 108.914 60.6241 106.807C59.5938 105.115 57.8095 104.177 55.9638 104.177C55.8408 104.161 55.6717 104.177 55.5024 104.192Z" fill="#4F3921"/>
</g>
<defs>
<clipPath id="clip0_35_6861">
<rect width="150" height="150" fill="white"/>
</clipPath>
</defs>
</svg>
