<svg width="150" height="150" viewBox="0 0 150 150" fill="none" xmlns="http://www.w3.org/2000/svg">
<g clip-path="url(#clip0_34_6851)">
<path d="M135.712 52.3493C135.813 50.8127 134.021 46.9213 130.905 41.9441C132.204 37.134 133.358 31.3589 132.851 27.4018C131.83 19.4268 126.299 4.15869 114.038 2.04229C108.589 1.10491 101.376 3.02021 95.1593 5.35879C89.4799 2.09499 83.6659 0.000488281 78.0441 0.000488281C70.5937 0.000488281 64.1545 3.88785 59.5365 7.81819C56.0757 6.67971 53.1014 6.30833 50.8447 6.95055C46.0783 8.30877 42.3872 14.842 40.4897 18.9662C38.1528 18.0629 36.2383 17.7491 34.8939 18.1991C27.8359 20.5693 22.8255 40.2851 22.2117 43.7597C22.1371 44.1627 23.1442 45.3652 24.9314 47.137C22.5255 55.6083 22.3625 61.964 22.7696 63.6027C23.4045 66.1213 26.1274 67.5136 26.0698 70.8334C25.9523 77.5069 14.2837 88.5503 14.2837 93.2907C14.2837 96.8367 23.6972 98.1309 23.6972 98.1309C23.6972 98.1309 24.4781 100.316 22.9034 104.554C21.3319 108.8 25.8274 113.723 27.1783 115.444C28.5082 117.155 27.4419 127.292 28.5325 130.278C29.632 133.254 32.6834 134.97 38.3725 133.025C44.5555 130.915 52.1737 127.814 54.9275 128.63C60.9353 142.769 46.4562 150 46.4562 150H122.619C122.619 150 100.518 132.238 100.983 112.769C101.016 111.332 101.439 109.85 102.109 108.283C106.869 108.192 117.922 104.29 118.947 96.5213C119.048 95.7347 118.664 94.5322 117.951 93.0515C124.379 89.495 135.713 82.1816 135.713 74.8432C135.713 73.1801 134.088 70.239 131.28 66.4838C133.177 62.0329 135.478 56.0056 135.712 52.3493ZM81.0184 69.184C80.2675 59.0488 73.0669 54.8079 73.0669 54.8079C73.0669 54.8079 69.4406 66.9152 74.8784 71.9167C70.2004 74.4207 56.8476 69.8603 56.7779 64.9666C56.7179 60.0803 69.1649 53.2624 69.1649 53.2624C69.1649 53.2624 51.7667 53.9087 51.9483 58.5866C46.9663 55.9959 45.514 47.819 52.5621 42.9018C57.7429 39.2836 68.6881 48.835 68.6881 48.835C68.6881 48.835 60.6166 36.0093 55.0061 39.0339C57.5077 31.401 69.2193 25.4962 78.5249 30.591C66.9715 33.4185 72.8358 47.6365 72.8358 47.6365C72.8358 47.6365 75.1338 35.007 80.1589 33.3634C87.6238 30.9137 95.1301 40.9508 91.4925 47.0089C85.8894 44.7611 75.1963 51.4639 75.1963 51.4639C75.1963 51.4639 89.8862 52.3485 92.5175 56.8197C95.1407 61.2925 86.5316 68.7762 81.0184 69.184Z" fill="#4F3921"/>
</g>
<defs>
<clipPath id="clip0_34_6851">
<rect width="150" height="150" fill="white"/>
</clipPath>
</defs>
</svg>
